<?xml version="1.0" encoding="UTF-8" standalone="no"?>
<!-- Created with Inkscape (http://www.inkscape.org/) -->

<svg
   width="202mm"
   height="62mm"
   viewBox="0 0 202 62"
   version="1.1"
   id="svg1688"
   inkscape:version="1.2.2 (732a01da63, 2022-12-09)"
   sodipodi:docname="drawing.svg"
   xmlns:inkscape="http://www.inkscape.org/namespaces/inkscape"
   xmlns:sodipodi="http://sodipodi.sourceforge.net/DTD/sodipodi-0.dtd"
   xmlns="http://www.w3.org/2000/svg"
   xmlns:svg="http://www.w3.org/2000/svg">
  <sodipodi:namedview
     id="namedview1690"
     pagecolor="#505050"
     bordercolor="#ffffff"
     borderopacity="1"
     inkscape:showpageshadow="0"
     inkscape:pageopacity="0"
     inkscape:pagecheckerboard="1"
     inkscape:deskcolor="#505050"
     inkscape:document-units="mm"
     showgrid="false"
     inkscape:zoom="0.84096521"
     inkscape:cx="832.37689"
     inkscape:cy="376.35326"
     inkscape:window-width="1920"
     inkscape:window-height="1111"
     inkscape:window-x="-9"
     inkscape:window-y="-9"
     inkscape:window-maximized="1"
     inkscape:current-layer="layer1" />
  <defs
     id="defs1685" />
  <g
     inkscape:label="Layer 1"
     inkscape:groupmode="layer"
     id="layer1">
    <path
       d="M 31.570573,19.708369 22.55043,35.218005 31.520458,53.909728 H 20.094943 l -7.742287,-18.89218 8.769585,-15.309179 z m -19.51859,0 V 53.909728 H 1.8792692 V 19.708369 Z"
       style="font-size:133.333px;font-family:'Bauhaus 93';-inkscape-font-specification:'Bauhaus 93, ';white-space:pre;shape-inside:url(#rect113);fill:#000000;stroke:none;stroke-width:0.384474;stroke-dasharray:none"
       id="path1191-8-4-8-4" />
    <path
       d="m 48.157612,44.538795 v 9.696648 q -1.152576,0.200443 -2.104701,0.200443 -5.63759,0 -9.395982,-3.708273 -3.758393,-3.708274 -3.758393,-9.295734 0,-5.437145 3.783451,-9.220604 3.808501,-3.783431 9.245643,-3.783431 6.063542,0 9.54632,3.557945 3.507831,3.532873 3.507831,9.671576 V 53.909728 H 49.610857 V 42.333894 q 0,-1.97943 -0.977183,-3.157045 -0.952127,-1.177643 -2.580763,-1.177643 -1.478299,0 -2.555708,1.077401 -1.077405,1.077414 -1.077405,2.555715 0,1.553472 0.977183,2.555701 0.977181,1.00223 2.480537,1.00223 1.227743,0 2.280094,-0.651458 z"
       style="font-size:133.333px;font-family:'Bauhaus 93';-inkscape-font-specification:'Bauhaus 93, ';white-space:pre;shape-inside:url(#rect113);fill:#000000;stroke:none;stroke-width:0.384474;stroke-dasharray:none"
       id="path1193-2-1-4-0" />
    <path
       d="m 78.149589,28.678402 v 10.022376 q -0.977195,-0.551243 -1.778979,-0.551243 -2.5557,0 -2.5557,3.90873 V 53.909728 H 64.443987 V 40.25425 q 0,-5.412088 2.9566,-8.619261 2.956601,-3.232216 7.892622,-3.232216 1.102463,0 2.85638,0.275629 z"
       style="font-size:133.333px;font-family:'Bauhaus 93';-inkscape-font-specification:'Bauhaus 93, ';white-space:pre;shape-inside:url(#rect113);fill:#000000;stroke:none;stroke-width:0.384474;stroke-dasharray:none"
       id="path1195-8-4-5-2" />
    <path
       d="m 98.628312,36.746406 v 9.020147 h -2.931536 v 8.143175 H 85.524061 V 32.161175 q 0,-6.314103 3.432673,-9.796876 3.457722,-3.507831 9.696635,-3.507831 6.013421,0 8.894881,3.182102 2.88143,3.157044 2.88143,9.771819 V 53.909728 H 100.25697 V 32.486903 q 0,-2.004486 -0.476086,-2.781215 -0.476057,-0.776743 -1.703801,-0.776743 -2.380307,0 -2.380307,3.557958 v 4.259503 z"
       style="font-size:133.333px;font-family:'Bauhaus 93';-inkscape-font-specification:'Bauhaus 93, ';white-space:pre;shape-inside:url(#rect113);fill:#000000;stroke:none;stroke-width:0.384474;stroke-dasharray:none"
       id="path1197-2-3-8-0" />
    <path
       d="m 146.29579,28.402773 q 5.31186,0 9.0953,3.833559 3.80849,3.808516 3.80849,9.145419 0,5.412088 -3.8586,9.220576 -3.83358,3.808516 -9.27071,3.808516 -5.43714,0 -9.29576,-3.808516 -3.85862,-3.833559 -3.85862,-9.220576 0,-5.487246 3.85862,-9.220576 3.85862,-3.758402 9.52128,-3.758402 z m -0.25057,9.245647 q -1.50336,0 -2.55571,1.102458 -1.05235,1.077415 -1.05235,2.655944 0,1.553472 1.05235,2.65593 1.07741,1.102444 2.55571,1.102444 1.50335,0 2.55571,-1.102444 1.0774,-1.102458 1.0774,-2.65593 0,-1.578529 -1.05236,-2.655944 -1.05234,-1.102458 -2.58075,-1.102458 z"
       style="font-size:133.333px;font-family:'Bauhaus 93';-inkscape-font-specification:'Bauhaus 93, ';white-space:pre;shape-inside:url(#rect113);fill:#000000;stroke:none;stroke-width:0.384474;stroke-dasharray:none"
       id="path1201-9-9-5-2" />
    <path
       d="m 172.47926,19.708369 v 34.201359 h -9.37092 V 19.708369 Z m 14.35705,9.220576 -4.58523,9.095318 6.81521,15.885465 h -10.37316 l -5.86309,-16.311422 4.2595,-8.669361 z"
       style="font-size:133.333px;font-family:'Bauhaus 93';-inkscape-font-specification:'Bauhaus 93, ';white-space:pre;shape-inside:url(#rect113);fill:#000000;stroke:none;stroke-width:0.384474;stroke-dasharray:none"
       id="path1203-7-2-5-9" />
    <path
       d="m 200.14103,28.928945 v 24.980783 h -9.37092 V 28.928945 Z m -4.66041,-11.149877 q 1.90425,0 3.28232,1.353015 1.40313,1.327958 1.40313,3.157044 0,1.954372 -1.32794,3.207159 -1.30293,1.252801 -3.35751,1.252801 -2.0546,0 -3.38257,-1.252801 -1.3029,-1.252787 -1.3029,-3.207159 0,-1.829086 1.37809,-3.157044 1.40311,-1.353015 3.30738,-1.353015 z"
       style="font-size:133.333px;font-family:'Bauhaus 93';-inkscape-font-specification:'Bauhaus 93, ';white-space:pre;shape-inside:url(#rect113);fill:#000000;stroke:none;stroke-width:0.384474;stroke-dasharray:none"
       id="path1205-2-3-0-3" />
    <path
       style="fill:#000000;stroke:none;stroke-width:0.384012;stroke-dasharray:none"
       d="m 117.68055,40.353602 c 0,0 5.09319,0.165736 3.97723,0.08635 l -0.0243,-3.725627 -0.13863,-0.05548 c -0.0763,-0.03059 -0.33695,-0.08524 -0.57929,-0.12167 -0.64869,-0.09748 -1.64045,-0.442074 -2.42114,-0.841403 -2.22867,-1.139973 -3.91306,-3.231909 -4.52753,-5.622946 -0.17729,-0.689849 -0.29604,-1.513258 -0.29735,-2.061497 -0.001,-0.50886 0.10346,-0.743858 0.44279,-0.995305 0.22379,-0.165777 0.68688,-0.167432 0.96764,-0.0042 0.33866,0.197801 0.43373,0.43188 0.49191,1.211488 0.0579,0.775519 0.1054,1.023212 0.33812,1.761021 0.5795,1.83736 2.01781,3.425136 3.82192,4.219038 2.488,1.094865 5.41433,0.645714 7.41316,-1.137805 1.00681,-0.898385 1.67505,-1.905662 2.04885,-3.088492 0.21096,-0.66742 0.33609,-1.088414 0.40153,-1.896388 0.55448,-0.563465 0.59507,-0.110129 1.83633,-0.07008 -0.003,1.424238 -0.53782,3.220327 -1.32911,4.466426 -0.92834,1.461892 -2.13293,2.546009 -3.65744,3.291618 -0.80608,0.394254 -2.36375,0.91998 -2.36375,0.91998 l -0.0313,3.774226 3.99133,-0.09581 -1.1027,13.342557 -8.2095,0.01738 c -0.4989,-4.406035 -1.04887,-13.373259 -1.04887,-13.373259 z m 4.25754,-6.828886 c -2.29299,-0.237111 -4.26413,-1.917899 -4.91357,-4.189768 l -0.14008,-0.490046 1e-5,-4.594255 v -4.594242 l 0.17249,-0.551312 c 0.84034,-2.685645 3.35876,-4.381562 6.06743,-4.085799 2.565,0.280078 4.59125,2.160572 5.06252,4.698377 0.0474,0.25555 0.0619,1.711338 0.0471,4.778013 -0.0211,4.370312 -0.0224,4.41467 -0.15945,4.869897 -0.20387,0.677752 -0.63096,1.497977 -1.06372,2.042879 -0.89496,1.126903 -2.38019,1.96665 -3.69435,2.088793 -0.23583,0.02183 -0.52527,0.04922 -0.6432,0.06063 -0.11777,0.01112 -0.4487,-0.0042 -0.73507,-0.03309 z"
       id="path1151-5-0-2-4-6"
       sodipodi:nodetypes="ccccssssssccsssccssccccccscccsssscssssss" />
  </g>
</svg>
